<svg width="505" height="30" viewBox="0 0 505 30" fill="none" xmlns="http://www.w3.org/2000/svg">
<path d="M285.675 18.846C282.171 21.508 277.935 19.091 275.456 17.137C272.865 15.095 269.795 13.867 266.621 13.758C255.253 13.368 253.929 26.197 253.929 26.197C253.929 26.197 261.201 14.055 269.802 18.27C269.802 18.27 275.799 20.864 276.85 28.647C276.85 28.647 278.743 24.972 276.411 21.459C278.597 22.486 282.192 23.459 285.675 18.846Z" fill="#FAEFD9"/>
<path d="M217.278 18.847C220.782 21.509 225.018 19.092 227.497 17.138C230.088 15.096 233.158 13.868 236.332 13.759C247.7 13.369 249.024 26.198 249.024 26.198C249.024 26.198 241.752 14.056 233.151 18.271C233.151 18.271 227.154 20.865 226.104 28.648C226.104 28.648 224.211 24.973 226.543 21.46C224.356 22.486 220.76 23.459 217.278 18.847Z" fill="#FAEFD9"/>
<path d="M262.138 11.021C258.12 10.249 254.457 15.206 252.212 19.197C251.943 19.679 251.696 20.146 251.471 20.581C251.256 20.146 251.009 19.68 250.74 19.213C248.495 15.222 244.832 10.249 240.815 11.022C243.952 6.16198 248.828 8.68797 251.471 16.606C254.124 8.68698 259.001 6.16097 262.138 11.021Z" fill="#FAEFD9"/>
<path d="M249.917 6.23996C249.457 3.81996 251.477 0.553955 251.477 0.553955C251.477 0.553955 253.497 3.81996 253.037 6.23996C252.693 8.04296 250.26 8.04296 249.917 6.23996Z" fill="#FAEFD9"/>
<path d="M285.763 26.4959C308.686 29.7359 332.419 30.0619 355.462 28.3259C364.812 27.6219 374.14 26.4819 383.355 24.7389C393.177 22.8819 402.558 19.9959 412.056 16.9449C428.238 11.7459 445.42 7.9179 462.518 8.6619C468.357 8.9159 475.388 9.4059 480.697 12.2029C481.55 12.6529 482.309 11.3579 481.454 10.9079C477.345 8.74391 472.225 8.0519 467.693 7.5539C453.023 5.9409 437.97 8.33889 423.779 11.9859C413.618 14.5969 403.838 18.4339 393.657 20.9629C384.118 23.3329 374.394 24.9289 364.626 25.9869C347.534 27.8389 330.273 28.1129 313.107 27.3169C304.175 26.9029 294.881 26.2819 286.162 25.0499C285.218 24.9159 284.81 26.3609 285.763 26.4959Z" fill="#FAEFD9"/>
<path d="M219.16 25.1009C195.825 28.3989 171.168 28.6599 147.583 26.6969C137.829 25.8849 128.107 24.5839 118.524 22.5799C108.498 20.4839 98.9799 17.0849 89.1899 14.1629C73.8479 9.58487 57.57 6.32388 41.481 7.28088C35.759 7.62188 29.0609 8.22287 23.8679 10.9589C23.0139 11.4089 23.7709 12.7039 24.6249 12.2539C28.8579 10.0239 34.3199 9.39387 38.9879 8.96787C54.5499 7.54787 70.3909 10.4239 85.3279 14.6069C95.2989 17.3989 104.948 21.0739 115.066 23.3599C124.267 25.4389 133.616 26.8399 143 27.7769C159.905 29.4649 176.961 29.6459 193.922 28.7839C202.475 28.3489 211.073 27.7459 219.559 26.5459C220.511 26.4129 220.106 24.9669 219.16 25.1009Z" fill="#FAEFD9"/>
<path d="M10.915 2.28003C10.138 6.27503 15.124 9.91703 19.138 12.149C19.623 12.416 20.093 12.662 20.53 12.886C20.093 13.1 19.623 13.345 19.154 13.612C15.14 15.844 10.139 19.486 10.916 23.481C6.02795 20.362 8.56895 15.513 16.5319 12.886C8.56795 10.248 6.02695 5.39903 10.915 2.28003Z" fill="#FAEFD9"/>
<path d="M6.10594 14.4311C3.67194 14.8891 0.387939 12.8801 0.387939 12.8801C0.387939 12.8801 3.67294 10.8721 6.10594 11.3291C7.91994 11.6711 7.91994 14.0901 6.10594 14.4311Z" fill="#FAEFD9"/>
<path d="M494.408 2.28003C495.185 6.27503 490.2 9.91703 486.185 12.149C485.7 12.416 485.23 12.662 484.793 12.886C485.23 13.1 485.699 13.345 486.169 13.612C490.183 15.844 495.184 19.486 494.407 23.481C499.295 20.362 496.754 15.513 488.791 12.886C496.755 10.248 499.296 5.39903 494.408 2.28003Z" fill="#FAEFD9"/>
<path d="M499.216 14.4311C501.65 14.8891 504.934 12.8801 504.934 12.8801C504.934 12.8801 501.649 10.8721 499.216 11.3291C497.403 11.6711 497.403 14.0901 499.216 14.4311Z" fill="#FAEFD9"/>
</svg>
