<svg width="505" height="29" viewBox="0 0 505 29" fill="none" xmlns="http://www.w3.org/2000/svg">
<path d="M285.675 18.292C282.171 20.954 277.935 18.537 275.456 16.583C272.865 14.541 269.795 13.313 266.621 13.204C255.253 12.814 253.929 25.643 253.929 25.643C253.929 25.643 261.201 13.501 269.802 17.716C269.802 17.716 275.799 20.31 276.85 28.093C276.85 28.093 278.743 24.418 276.411 20.905C278.597 21.932 282.192 22.905 285.675 18.292Z" fill="#DAA63E"/>
<path d="M217.278 18.293C220.782 20.955 225.018 18.538 227.497 16.584C230.088 14.542 233.158 13.314 236.332 13.205C247.7 12.815 249.024 25.644 249.024 25.644C249.024 25.644 241.752 13.502 233.151 17.717C233.151 17.717 227.154 20.311 226.104 28.094C226.104 28.094 224.211 24.419 226.543 20.906C224.356 21.932 220.76 22.905 217.278 18.293Z" fill="#DAA63E"/>
<path d="M262.138 10.467C258.12 9.69501 254.457 14.652 252.212 18.643C251.943 19.125 251.696 19.592 251.471 20.027C251.256 19.592 251.009 19.126 250.74 18.659C248.495 14.668 244.832 9.69502 240.815 10.468C243.952 5.60802 248.828 8.13402 251.471 16.052C254.124 8.13302 259.001 5.60701 262.138 10.467Z" fill="#DAA63E"/>
<path d="M249.917 5.686C249.457 3.266 251.477 0 251.477 0C251.477 0 253.497 3.266 253.037 5.686C252.693 7.489 250.26 7.489 249.917 5.686Z" fill="#DAA63E"/>
<path d="M285.763 25.9419C308.686 29.1819 332.419 29.5079 355.462 27.7719C364.812 27.0679 374.14 25.9279 383.355 24.1849C393.177 22.3279 402.558 19.442 412.056 16.391C428.238 11.192 445.42 7.36395 462.518 8.10795C468.357 8.36195 475.388 8.85195 480.697 11.6489C481.55 12.0989 482.309 10.804 481.454 10.354C477.345 8.18995 472.225 7.49795 467.693 6.99995C453.023 5.38695 437.97 7.78494 423.779 11.4319C413.618 14.0429 403.838 17.8799 393.657 20.4089C384.118 22.7789 374.394 24.3749 364.626 25.4329C347.534 27.2849 330.273 27.5589 313.107 26.7629C304.175 26.3489 294.881 25.7279 286.162 24.4959C285.218 24.3619 284.81 25.8069 285.763 25.9419Z" fill="#DAA63E"/>
<path d="M219.16 24.5469C195.825 27.8449 171.168 28.1059 147.583 26.1429C137.829 25.3309 128.107 24.0299 118.524 22.0259C108.498 19.9299 98.9799 16.5309 89.1899 13.6089C73.8479 9.03091 57.57 5.76992 41.481 6.72692C35.759 7.06792 29.0609 7.66892 23.8679 10.4049C23.0139 10.8549 23.7709 12.1499 24.6249 11.6999C28.8579 9.46991 34.3199 8.83992 38.9879 8.41392C54.5499 6.99392 70.3909 9.86991 85.3279 14.0529C95.2989 16.8449 104.948 20.5199 115.066 22.8059C124.267 24.8849 133.616 26.2859 143 27.2229C159.905 28.9109 176.961 29.0919 193.922 28.2299C202.475 27.7949 211.073 27.1919 219.559 25.9919C220.511 25.8589 220.106 24.4129 219.16 24.5469Z" fill="#DAA63E"/>
<path d="M10.915 1.72607C10.138 5.72107 15.124 9.36308 19.138 11.5951C19.623 11.8621 20.093 12.1081 20.53 12.3321C20.093 12.5461 19.623 12.7911 19.154 13.0581C15.14 15.2901 10.139 18.9321 10.916 22.9271C6.02795 19.8081 8.56895 14.9591 16.5319 12.3321C8.56795 9.69408 6.02695 4.84507 10.915 1.72607Z" fill="#DAA63E"/>
<path d="M6.10594 13.8772C3.67194 14.3352 0.387939 12.3262 0.387939 12.3262C0.387939 12.3262 3.67294 10.3182 6.10594 10.7752C7.91994 11.1172 7.91994 13.5362 6.10594 13.8772Z" fill="#DAA63E"/>
<path d="M494.408 1.72607C495.185 5.72107 490.2 9.36308 486.185 11.5951C485.7 11.8621 485.23 12.1081 484.793 12.3321C485.23 12.5461 485.699 12.7911 486.169 13.0581C490.183 15.2901 495.184 18.9321 494.407 22.9271C499.295 19.8081 496.754 14.9591 488.791 12.3321C496.755 9.69408 499.296 4.84507 494.408 1.72607Z" fill="#DAA63E"/>
<path d="M499.216 13.8772C501.65 14.3352 504.934 12.3262 504.934 12.3262C504.934 12.3262 501.649 10.3182 499.216 10.7752C497.403 11.1172 497.403 13.5362 499.216 13.8772Z" fill="#DAA63E"/>
</svg>
