<svg width="142" height="178" viewBox="0 0 142 178" fill="none" xmlns="http://www.w3.org/2000/svg">
<path d="M18.56 84.339C18.922 84.565 19.346 84.702 19.804 84.702C21.104 84.702 22.159 83.648 22.159 82.347C22.159 81.046 21.105 79.992 19.804 79.992C18.504 79.992 17.449 81.046 17.449 82.347C17.449 83.009 17.724 83.606 18.165 84.033C16.511 86.303 13.906 90.431 12.793 95.101V79.956C25.754 76.728 26.507 62.956 26.513 62.817L26.531 62.408L26.159 62.58C17.127 66.743 13.882 71.484 12.793 74.936V64.947L12.855 64.954C13.461 59.438 16.657 54.337 18.56 51.725C18.922 51.951 19.346 52.088 19.804 52.088C21.104 52.088 22.159 51.034 22.159 49.733C22.159 48.433 21.105 47.378 19.804 47.378C18.504 47.378 17.449 48.432 17.449 49.733C17.449 50.395 17.724 50.992 18.165 51.42C16.511 53.69 13.906 57.818 12.794 62.488V47.343C25.755 44.116 26.508 30.343 26.514 30.204L26.532 29.795L26.16 29.967C17.128 34.13 13.883 38.871 12.794 42.323V33.64L12.856 33.647C13.462 28.13 16.658 23.029 18.561 20.417C18.923 20.643 19.347 20.78 19.805 20.78C21.105 20.78 22.16 19.726 22.16 18.425C22.16 17.125 21.106 16.071 19.805 16.071C18.505 16.071 17.45 17.125 17.45 18.425C17.45 19.087 17.725 19.684 18.166 20.112C16.512 22.382 13.907 26.51 12.795 31.18V12.781H17.848C17.994 12.784 18.143 12.793 18.287 12.793C18.418 12.793 18.542 12.784 18.67 12.781H21.124C26.601 13.416 31.655 16.579 34.25 18.47C34.023 18.832 33.887 19.256 33.887 19.714C33.887 21.014 34.941 22.069 36.242 22.069C37.543 22.069 38.597 21.015 38.597 19.714C38.597 18.414 37.543 17.359 36.242 17.359C35.58 17.359 34.984 17.634 34.556 18.075C32.34 16.46 28.356 13.935 23.823 12.781H38.369C41.591 25.755 55.374 26.509 55.513 26.514L55.923 26.532L55.751 26.16C51.572 17.095 46.811 13.858 43.355 12.781H124.145V12.281H32.156C36.744 11.143 40.785 8.58699 43.022 6.95599C43.45 7.39599 44.046 7.672 44.709 7.672C46.009 7.672 47.064 6.61799 47.064 5.31699C47.064 4.01699 46.01 2.96201 44.709 2.96201C43.409 2.96201 42.354 4.01599 42.354 5.31699C42.354 5.77499 42.49 6.199 42.717 6.561C40.105 8.464 35.004 11.659 29.488 12.266L29.489 12.281H22.546C31.866 9.95901 35.338 0.498993 35.378 0.386993L35.515 0L35.109 0.0549927C18.673 2.28999 17.145 10.768 17.004 12.281H12.294V22.301C11.162 17.692 8.59299 13.628 6.95699 11.383C7.39699 10.955 7.673 10.359 7.673 9.69598C7.673 8.39598 6.61899 7.341 5.31799 7.341C4.01699 7.341 2.963 8.39498 2.963 9.69598C2.963 10.996 4.01699 12.051 5.31799 12.051C5.77599 12.051 6.2 11.915 6.561 11.688C8.464 14.3 11.66 19.401 12.266 24.917L12.293 24.914V31.933C10.002 22.56 0.497994 19.068 0.385994 19.028L0 18.89L0.0549927 19.296C2.29699 35.782 10.819 37.269 12.293 37.402V45.071C12.28 45.367 12.282 45.638 12.293 45.878V53.609C11.161 49 8.59199 44.936 6.95599 42.69C7.39599 42.262 7.672 41.666 7.672 41.003C7.672 39.703 6.61799 38.648 5.31699 38.648C4.01599 38.648 2.962 39.702 2.962 41.003C2.962 42.303 4.01599 43.358 5.31699 43.358C5.77499 43.358 6.199 43.222 6.561 42.995C8.464 45.606 11.659 50.707 12.266 56.224L12.293 56.221V63.24C10.002 53.867 0.497994 50.375 0.385994 50.335L0 50.197L0.0549927 50.604C2.29699 67.089 10.819 68.576 12.293 68.709V77.683C12.28 77.979 12.282 78.25 12.293 78.49V86.221C11.161 81.612 8.59299 77.548 6.95599 75.302C7.39599 74.874 7.672 74.278 7.672 73.616C7.672 72.315 6.61799 71.261 5.31699 71.261C4.01599 71.261 2.962 72.315 2.962 73.616C2.962 74.916 4.01599 75.971 5.31699 75.971C5.77499 75.971 6.199 75.835 6.561 75.608C8.464 78.22 11.659 83.321 12.266 88.837L12.293 88.834V95.853C10.002 86.479 0.497994 82.987 0.385994 82.947L0 82.809L0.0549927 83.215C2.29699 99.702 10.819 101.189 12.293 101.322V109.55H12.793V97.559L12.855 97.566C13.461 92.052 16.657 86.951 18.56 84.339ZM55.112 25.978C52.854 25.744 42.187 24.055 39.073 13.398L50.481 22.388L50.791 21.995L39.188 12.851C39.462 12.811 39.838 12.776 40.303 12.779H40.384C43.35 12.824 49.671 14.44 55.112 25.978ZM34.75 0.609985C33.885 2.65399 29.365 11.99 18.773 12.28H18.013L29.964 3.987L29.679 3.577L17.541 11.999C17.848 10.005 19.984 2.74799 34.75 0.609985ZM0.609993 19.654C2.70199 20.539 12.44 25.271 12.283 36.393L3.988 24.44L3.577 24.725L11.999 36.862C10.005 36.554 2.74999 34.419 0.609993 19.654ZM25.978 30.602C25.744 32.86 24.056 43.527 13.398 46.64L22.389 35.231L21.996 34.922L12.85 46.527C12.828 46.375 12.806 46.195 12.792 45.981V44.903C12.982 41.792 14.945 35.804 25.978 30.602ZM0.609993 50.964C2.70199 51.849 12.44 56.581 12.283 67.703L3.988 55.749L3.577 56.034L11.999 68.171C10.005 67.864 2.74999 65.728 0.609993 50.964ZM25.978 63.215C25.745 65.472 24.065 76.139 13.398 79.254L22.389 67.845L21.996 67.536L12.85 79.142C12.828 78.99 12.806 78.809 12.792 78.595V77.519C12.982 74.408 14.944 68.418 25.978 63.215ZM0.609993 83.577C2.70199 84.462 12.44 89.195 12.283 100.317L3.988 88.364L3.577 88.649L11.999 100.786C10.005 100.478 2.74999 98.342 0.609993 83.577Z" fill="#DAA63E"/>
<path d="M141.209 127.497L141.595 127.635L141.54 127.229C139.299 110.743 130.777 109.255 129.303 109.122V100.149C129.316 99.853 129.314 99.582 129.303 99.342V91.611C130.435 96.22 133.004 100.284 134.64 102.529C134.2 102.957 133.924 103.553 133.924 104.216C133.924 105.516 134.978 106.571 136.279 106.571C137.58 106.571 138.634 105.517 138.634 104.216C138.634 102.916 137.58 101.861 136.279 101.861C135.821 101.861 135.397 101.997 135.036 102.224C133.133 99.613 129.937 94.512 129.331 88.995L129.304 88.998V81.979C131.595 91.352 141.098 94.844 141.21 94.884L141.596 95.022L141.541 94.616C139.3 78.13 130.778 76.643 129.304 76.51V54.5H128.804V80.273L128.742 80.266C128.136 85.782 124.94 90.883 123.038 93.495C122.676 93.269 122.252 93.132 121.794 93.132C120.494 93.132 119.439 94.186 119.439 95.487C119.439 96.787 120.493 97.842 121.794 97.842C123.095 97.842 124.149 96.788 124.149 95.487C124.149 94.825 123.874 94.228 123.433 93.8C125.087 91.53 127.693 87.401 128.804 82.731V97.878C115.843 101.105 115.09 114.878 115.084 115.017L115.066 115.426L115.438 115.254C124.47 111.091 127.715 106.35 128.804 102.898V112.886L128.742 112.879C128.136 118.396 124.94 123.497 123.038 126.109C122.676 125.883 122.252 125.746 121.794 125.746C120.494 125.746 119.439 126.8 119.439 128.101C119.439 129.401 120.493 130.456 121.794 130.456C123.095 130.456 124.149 129.402 124.149 128.101C124.149 127.439 123.874 126.843 123.434 126.415C125.088 124.145 127.693 120.016 128.805 115.345V130.493C115.844 133.72 115.091 147.493 115.085 147.632L115.067 148.041L115.439 147.869C124.471 143.706 127.716 138.965 128.805 135.513V144.196L128.743 144.189C128.137 149.706 124.942 154.807 123.039 157.419C122.677 157.193 122.253 157.056 121.795 157.056C120.495 157.056 119.44 158.11 119.44 159.411C119.44 160.711 120.494 161.766 121.795 161.766C123.096 161.766 124.15 160.712 124.15 159.411C124.15 158.749 123.875 158.153 123.435 157.725C125.089 155.455 127.694 151.326 128.806 146.655V165.055H123.593C123.367 165.052 123.142 165.05 122.921 165.055H120.471C114.997 164.418 109.945 161.257 107.351 159.367C107.577 159.005 107.714 158.581 107.714 158.123C107.714 156.823 106.66 155.768 105.359 155.768C104.058 155.768 103.004 156.822 103.004 158.123C103.004 159.423 104.058 160.478 105.359 160.478C106.022 160.478 106.618 160.202 107.046 159.762C109.261 161.377 113.244 163.901 117.776 165.056H103.233C100.011 152.083 86.229 151.329 86.089 151.324L85.679 151.306L85.851 151.678C90.027 160.738 94.786 163.977 98.24 165.056H17.453V165.556H109.44C104.852 166.694 100.81 169.251 98.573 170.881C98.145 170.441 97.549 170.165 96.887 170.165C95.587 170.165 94.532 171.219 94.532 172.52C94.532 173.82 95.586 174.875 96.887 174.875C98.188 174.875 99.242 173.821 99.242 172.52C99.242 172.062 99.106 171.638 98.879 171.276C101.49 169.373 106.592 166.177 112.109 165.571L112.107 165.556H119.101C109.745 167.867 106.259 177.339 106.219 177.451L106.082 177.838L106.488 177.783C122.924 175.548 124.452 167.069 124.593 165.556H129.303V155.537C130.435 160.146 133.004 164.209 134.64 166.455C134.2 166.883 133.924 167.479 133.924 168.142C133.924 169.442 134.978 170.497 136.279 170.497C137.58 170.497 138.634 169.443 138.634 168.142C138.634 166.842 137.58 165.787 136.279 165.787C135.821 165.787 135.397 165.923 135.035 166.15C133.132 163.538 129.936 158.437 129.33 152.921L129.303 152.924V145.904C131.594 155.278 141.097 158.77 141.209 158.809L141.595 158.947L141.54 158.541C139.299 142.055 130.777 140.567 129.303 140.434V132.765C129.316 132.469 129.314 132.198 129.303 131.958V124.227C130.435 128.836 133.004 132.9 134.64 135.145C134.2 135.573 133.924 136.169 133.924 136.832C133.924 138.132 134.978 139.187 136.279 139.187C137.58 139.187 138.634 138.133 138.634 136.832C138.634 135.532 137.58 134.478 136.279 134.478C135.821 134.478 135.397 134.614 135.035 134.84C133.132 132.229 129.936 127.127 129.33 121.611L129.303 121.614V114.595C131.594 123.966 141.097 127.458 141.209 127.497ZM140.985 94.255C138.893 93.37 129.156 88.638 129.313 77.516L137.608 89.469L138.019 89.184L129.597 77.047C131.591 77.355 138.846 79.49 140.985 94.255ZM115.618 114.617C115.852 112.359 117.54 101.692 128.198 98.579L119.207 109.988L119.6 110.297L128.746 98.691C128.768 98.843 128.79 99.024 128.804 99.237V100.315C128.614 103.427 126.651 109.415 115.618 114.617ZM86.484 151.856C88.74 152.089 99.408 153.771 102.523 164.435L91.114 155.446L90.805 155.839L102.409 164.982C102.138 165.021 101.766 165.056 101.307 165.054H101.213C98.245 165.008 91.924 163.391 86.484 151.856ZM106.846 177.224C107.718 175.163 112.327 165.681 123.102 165.553H123.583L111.632 173.846L111.917 174.256L124.055 165.834C123.747 167.828 121.612 175.085 106.846 177.224ZM140.985 158.179C138.893 157.294 129.156 152.561 129.313 141.439L137.608 153.393L138.019 153.108L129.597 140.971C131.591 141.278 138.846 143.414 140.985 158.179ZM140.985 126.869C138.893 125.984 129.156 121.251 129.313 110.129L137.608 122.083L138.019 121.798L129.596 109.661C131.591 109.968 138.846 112.105 140.985 126.869ZM115.618 147.232C115.852 144.974 117.54 134.307 128.198 131.194L119.207 142.603L119.6 142.912L128.746 131.307C128.768 131.459 128.79 131.639 128.804 131.853V132.931C128.614 136.041 126.651 142.029 115.618 147.232Z" fill="#DAA63E"/>
<path d="M111.775 20.1099H55.521V20.6099H111.775V20.1099Z" fill="#DAA63E"/>
<path d="M45.4753 48.8298C47.9463 48.8298 50.1053 49.389 51.9521 50.5075C53.8249 51.626 55.2685 53.2387 56.283 55.3456C57.3234 57.4265 57.8436 59.9626 57.8436 62.9539C57.8436 65.8672 57.3104 68.4163 56.2439 70.6012C55.2035 72.7862 53.7469 74.4899 51.874 75.7124C50.0012 76.935 47.8553 77.5462 45.4363 77.5462C42.9652 77.5462 40.7932 76.987 38.9204 75.8685C37.0736 74.75 35.63 73.1373 34.5896 71.0304C33.5751 68.9235 33.0679 66.3874 33.0679 63.4221C33.0679 60.5089 33.6011 57.9598 34.6676 55.7748C35.7341 53.5899 37.1907 51.8861 39.0375 50.6636C40.9103 49.4411 43.0562 48.8298 45.4753 48.8298ZM45.3192 49.5321C43.6285 49.5321 42.1588 50.1174 40.9103 51.2879C39.6618 52.4584 38.6863 54.0711 37.984 56.126C37.3077 58.1808 36.9696 60.5609 36.9696 63.2661C36.9696 66.0232 37.3467 68.4293 38.1011 70.4842C38.8814 72.5131 39.9219 74.0867 41.2224 75.2052C42.549 76.2977 44.0056 76.8439 45.5923 76.8439C47.2831 76.8439 48.7527 76.2587 50.0012 75.0882C51.2498 73.9177 52.2122 72.305 52.8885 70.2501C53.5908 68.1692 53.9419 65.7891 53.9419 63.11C53.9419 60.3268 53.5518 57.9207 52.7714 55.8919C52.0171 53.863 50.9897 52.3023 49.6891 51.2098C48.3885 50.0913 46.9319 49.5321 45.3192 49.5321Z" fill="#DAA63E"/>
<path d="M108.285 101.376V102.156C107.401 102.182 106.725 102.286 106.257 102.469C105.814 102.625 105.515 102.937 105.359 103.405C105.203 103.847 105.125 104.549 105.125 105.512V124.864C105.125 125.801 105.203 126.503 105.359 126.971C105.515 127.439 105.814 127.751 106.257 127.908C106.725 128.064 107.401 128.168 108.285 128.22V129C107.687 128.948 106.933 128.922 106.022 128.922C105.138 128.896 104.241 128.883 103.33 128.883C102.316 128.883 101.366 128.896 100.482 128.922C99.5976 128.922 98.8823 128.948 98.3361 129V128.22C99.2205 128.168 99.8838 128.064 100.326 127.908C100.794 127.751 101.106 127.439 101.262 126.971C101.418 126.503 101.496 125.801 101.496 124.864V103.405L101.653 103.522L92.0934 129.195H91.4691L81.6369 103.873V124.474C81.6369 125.41 81.7149 126.152 81.871 126.698C82.053 127.218 82.3912 127.595 82.8854 127.829C83.4056 128.038 84.173 128.168 85.1874 128.22V129C84.7192 128.948 84.1079 128.922 83.3536 128.922C82.5993 128.896 81.884 128.883 81.2077 128.883C80.5574 128.883 79.8941 128.896 79.2178 128.922C78.5675 128.922 78.0213 128.948 77.5791 129V128.22C78.4635 128.168 79.1268 128.038 79.569 127.829C80.0372 127.595 80.3493 127.218 80.5054 126.698C80.6614 126.152 80.7395 125.41 80.7395 124.474V105.512C80.7395 104.549 80.6614 103.847 80.5054 103.405C80.3493 102.937 80.0372 102.625 79.569 102.469C79.1268 102.286 78.4635 102.182 77.5791 102.156V101.376C78.0213 101.402 78.5675 101.428 79.2178 101.454C79.8941 101.48 80.5574 101.493 81.2077 101.493C81.7799 101.493 82.3652 101.48 82.9634 101.454C83.5877 101.428 84.1079 101.402 84.5241 101.376L93.381 124.708L92.7177 125.02L101.496 101.493C101.809 101.493 102.108 101.493 102.394 101.493C102.706 101.493 103.018 101.493 103.33 101.493C104.241 101.493 105.138 101.48 106.022 101.454C106.933 101.428 107.687 101.402 108.285 101.376Z" fill="#DAA63E"/>
<path d="M65.763 83.2022C66.2294 83.2022 66.616 83.2575 66.9228 83.3679C67.2297 83.4661 67.4813 83.595 67.6777 83.7545C67.8372 83.8773 67.9661 84.0123 68.0643 84.1596C68.1625 84.3069 68.2361 84.4541 68.2852 84.6014C68.3343 84.7487 68.3589 84.8899 68.3589 85.0249C68.3589 85.3317 68.2484 85.5711 68.0275 85.7429C67.8188 85.9147 67.5856 86.0006 67.3279 86.0006C67.0824 86.0006 66.8615 85.9209 66.6651 85.7613C66.4687 85.6017 66.3705 85.3747 66.3705 85.0801C66.3705 84.8101 66.4626 84.583 66.6467 84.3989C66.8308 84.2025 67.064 84.0921 67.3463 84.0675C67.2972 83.908 67.1438 83.773 66.886 83.6625C66.6405 83.5398 66.3275 83.4784 65.9471 83.4784C65.3211 83.4784 64.8056 83.6686 64.4006 84.0491C64.0078 84.4173 63.8114 84.9574 63.8114 85.6692C63.8114 86.0129 63.8728 86.3627 63.9955 86.7186C64.1305 87.0746 64.3822 87.4244 64.7504 87.7681C64.959 87.7312 65.1738 87.7067 65.3947 87.6944C65.6157 87.6699 65.7814 87.6576 65.8918 87.6576C66.1128 87.6576 66.2907 87.6944 66.4257 87.7681C66.5607 87.8417 66.6283 87.946 66.6283 88.081C66.6283 88.1915 66.5792 88.2774 66.481 88.3388C66.3951 88.4001 66.2723 88.4308 66.1128 88.4308C65.8796 88.4308 65.6341 88.3817 65.3763 88.2835C65.1186 88.1731 64.9161 88.0872 64.7688 88.0258C64.0569 88.2345 63.48 88.5781 63.0382 89.0568C62.5963 89.5232 62.3754 90.186 62.3754 91.0451C62.3754 91.892 62.5963 92.61 63.0382 93.1992C63.48 93.7883 64.0692 94.2424 64.8056 94.5616C65.5543 94.8684 66.3889 95.0218 67.3094 95.0218C67.96 95.0218 68.5736 94.9482 69.1505 94.8009C69.7396 94.6413 70.2551 94.4143 70.697 94.1197C71.1511 93.8251 71.5071 93.4753 71.7648 93.0703C72.0226 92.653 72.1514 92.1805 72.1514 91.6527C72.1514 91.4195 72.1023 91.1249 72.0041 90.769C71.906 90.4008 71.7034 90.0448 71.3966 89.7012C71.0898 89.3452 70.6172 89.0691 69.979 88.8727L70.1999 88.6886C71.0959 88.9586 71.7341 89.3943 72.1146 89.9957C72.4951 90.5849 72.6853 91.2477 72.6853 91.9841C72.6853 92.7205 72.4644 93.4262 72.0226 94.1013C71.5807 94.7764 70.9425 95.3287 70.1079 95.7583C69.2732 96.1756 68.2607 96.3842 67.0701 96.3842C66.2723 96.3842 65.5113 96.2799 64.7872 96.0712C64.0753 95.8626 63.4432 95.5619 62.8909 95.1691C62.3386 94.7641 61.9029 94.2793 61.5837 93.7147C61.2646 93.1501 61.1051 92.5119 61.1051 91.8C61.1051 91.1372 61.2339 90.5726 61.4917 90.1062C61.7494 89.6275 62.0686 89.2348 62.449 88.9279C62.8295 88.6211 63.21 88.3879 63.5905 88.2283C63.971 88.0565 64.2778 87.9399 64.511 87.8785C64.106 87.6944 63.7623 87.4796 63.48 87.2341C63.21 86.9764 63.0014 86.7002 62.8541 86.4057C62.7191 86.0988 62.6516 85.7981 62.6516 85.5035C62.6516 85.209 62.7191 84.9267 62.8541 84.6567C62.9891 84.3744 63.1855 84.1228 63.4432 83.9018C63.701 83.6809 64.0201 83.5091 64.4006 83.3863C64.7933 83.2636 65.2475 83.2022 65.763 83.2022ZM72.4644 82.834C73.2254 82.834 73.8636 83.0549 74.3791 83.4968C74.8946 83.9264 75.1524 84.5339 75.1524 85.3194C75.1524 85.7367 75.0726 86.1111 74.913 86.4425C74.7657 86.7616 74.5571 87.0439 74.2871 87.2894C74.0293 87.5349 73.7347 87.7374 73.4034 87.8969C73.1211 88.0319 72.7467 88.1792 72.2803 88.3388C71.8262 88.4983 71.3352 88.6579 70.8075 88.8175C70.292 88.977 69.7949 89.1366 69.3162 89.2961C68.8498 89.4434 68.4693 89.5723 68.1747 89.6828C67.7206 89.8546 67.334 90.0694 67.0149 90.3271C66.708 90.5726 66.5546 90.8917 66.5546 91.2845C66.5546 91.6036 66.6467 91.8736 66.8308 92.0945C67.0149 92.3155 67.2358 92.4812 67.4936 92.5916C67.7636 92.7021 68.0152 92.7573 68.2484 92.7573C68.3589 92.7573 68.4939 92.7451 68.6534 92.7205C68.8253 92.6837 68.9787 92.6346 69.1137 92.5732C69.2487 92.5119 69.3285 92.4382 69.353 92.3523C69.1566 92.3155 68.9603 92.2296 68.7639 92.0945C68.5798 91.9473 68.4877 91.7202 68.4877 91.4134C68.4877 91.1188 68.5859 90.8856 68.7823 90.7137C68.9787 90.5419 69.218 90.456 69.5003 90.456C69.7949 90.456 70.0281 90.5481 70.1999 90.7322C70.384 90.9163 70.4761 91.1556 70.4761 91.4502C70.4761 91.7938 70.3595 92.0884 70.1263 92.3339C69.9053 92.5671 69.623 92.7451 69.2794 92.8678C68.948 92.9783 68.6166 93.0335 68.2852 93.0335C67.9415 93.0335 67.5917 92.9598 67.2358 92.8126C66.8799 92.6653 66.5853 92.4382 66.3521 92.1314C66.1189 91.8122 66.0023 91.3949 66.0023 90.8794C66.0023 90.4499 66.0943 90.0694 66.2785 89.738C66.4748 89.4066 66.7633 89.112 67.1438 88.8543C67.5242 88.5965 67.9906 88.3756 68.543 88.1915C68.9112 88.0688 69.3592 87.9337 69.8869 87.7865C70.4147 87.6392 70.9547 87.4796 71.5071 87.3078C72.0717 87.136 72.581 86.9457 73.0351 86.7371C73.6488 86.4548 74.0661 86.1663 74.2871 85.8718C74.508 85.5772 74.6185 85.2765 74.6185 84.9696C74.6185 84.6137 74.5203 84.3007 74.3239 84.0307C74.1275 83.7484 73.8636 83.5275 73.5322 83.3679C73.2131 83.1961 72.8633 83.1102 72.4828 83.1102C72.3355 83.1102 72.2128 83.1224 72.1146 83.147C72.0164 83.1715 71.9551 83.2145 71.9305 83.2759C72.1023 83.3618 72.2312 83.4845 72.3171 83.6441C72.403 83.8036 72.446 83.9632 72.446 84.1228C72.446 84.3805 72.3417 84.5953 72.133 84.7671C71.9366 84.939 71.6973 85.0249 71.415 85.0249C71.1818 85.0249 70.9609 84.9512 70.7522 84.8039C70.5436 84.6444 70.4392 84.4112 70.4392 84.1043C70.4392 83.7852 70.5436 83.5336 70.7522 83.3495C70.9732 83.1654 71.237 83.0365 71.5439 82.9629C71.863 82.877 72.1698 82.834 72.4644 82.834Z" fill="#DAA63E"/>
<path d="M40.8582 44.4066C40.4998 44.4066 40.1664 44.3476 39.8578 44.2296C39.5539 44.1071 39.2885 43.937 39.0616 43.7192C38.8393 43.4969 38.6647 43.2406 38.5376 42.9502C38.4151 42.6553 38.3539 42.3332 38.3539 41.9839C38.3539 41.6345 38.4151 41.3147 38.5376 41.0243C38.6647 40.7294 38.8393 40.4731 39.0616 40.2553C39.2885 40.033 39.5539 39.8629 39.8578 39.7449C40.1618 39.6224 40.4953 39.5612 40.8582 39.5612C41.2166 39.5612 41.5478 39.6224 41.8518 39.7449C42.1558 39.8629 42.4189 40.0307 42.6412 40.2485C42.8681 40.4663 43.0427 40.7226 43.1652 41.0175C43.2923 41.3124 43.3558 41.6345 43.3558 41.9839C43.3558 42.3332 43.2923 42.6553 43.1652 42.9502C43.0427 43.2451 42.8681 43.5014 42.6412 43.7192C42.4189 43.937 42.1558 44.1071 41.8518 44.2296C41.5478 44.3476 41.2166 44.4066 40.8582 44.4066ZM40.8582 43.9574C41.144 43.9574 41.4072 43.9098 41.6476 43.8145C41.8926 43.7147 42.1036 43.5763 42.2805 43.3994C42.462 43.2179 42.6027 43.0092 42.7025 42.7733C42.8023 42.5328 42.8522 42.2697 42.8522 41.9839C42.8522 41.698 42.8023 41.4372 42.7025 41.2013C42.6027 40.9608 42.462 40.7521 42.2805 40.5752C42.1036 40.3937 41.8926 40.2553 41.6476 40.16C41.4072 40.0602 41.144 40.0103 40.8582 40.0103C40.5724 40.0103 40.307 40.0602 40.062 40.16C39.817 40.2553 39.6038 40.3937 39.4223 40.5752C39.2454 40.7521 39.1047 40.9608 39.0004 41.2013C38.9006 41.4372 38.8507 41.698 38.8507 41.9839C38.8507 42.2652 38.9006 42.526 39.0004 42.7665C39.1047 43.0069 39.2454 43.2179 39.4223 43.3994C39.6038 43.5763 39.817 43.7147 40.062 43.8145C40.307 43.9098 40.5724 43.9574 40.8582 43.9574ZM44.9201 43.1816L44.8997 42.5691L47.7851 39.602H48.3636L46.2607 41.8069L45.9749 42.1132L44.9201 43.1816ZM44.4845 44.3657V39.602H44.9881V44.3657H44.4845ZM47.9076 44.3657L45.8524 41.9975L46.1927 41.63L48.5065 44.3657H47.9076ZM48.3744 44.3657L50.5521 39.602H51.0489L53.2266 44.3657H52.6958L50.695 39.8946H50.8992L48.8984 44.3657H48.3744ZM49.2319 43.0931L49.3816 42.6848H52.1514L52.3011 43.0931H49.2319Z" fill="#DAA63E"/>
<path d="M84.7758 139V134.236H85.1909L87.3686 137.952H87.1509L89.3081 134.236H89.7233V139H89.2401V134.992H89.3558L87.3686 138.394H87.1304L85.1297 134.992H85.259V139H84.7758ZM91.2754 139V134.236H91.779V139H91.2754ZM94.2545 139V134.672H92.5804V134.236H96.4322V134.672H94.7581V139H94.2545ZM96.2352 139L98.4129 134.236H98.9097L101.087 139H100.557L98.5558 134.529H98.76L96.7592 139H96.2352ZM97.0927 137.727L97.2424 137.319H100.012L100.162 137.727H97.0927Z" fill="#DAA63E"/>
<path d="M120.983 51.1726H118.381V52.179H118.119V49.8634H118.381V50.8698H120.983V51.1726ZM118.119 47.2851V46.9864H120.983V47.2851H118.119ZM120.983 49.077V49.3798H118.119V49.077H120.983ZM119.662 47.2564V49.1097H119.396V47.2564H119.662ZM119.4 45.7816V44.2679H119.658V45.7816H119.4ZM120.721 45.7489V44.0265H120.983V46.0517H118.119V44.0879H118.381V45.7489H120.721ZM120.983 41.5936L118.119 42.5592V42.2482L120.815 41.3441V41.4995L118.119 40.5667V40.2885L120.815 39.368V39.5153L118.119 38.603V38.3125L120.983 39.278V39.5971L118.426 40.4767V40.3949L120.983 41.2786V41.5936ZM119.4 37.4874V35.9736H119.658V37.4874H119.4ZM120.721 37.4546V35.7323H120.983V37.7574H118.119V35.7936H118.381V37.4546H120.721ZM120.983 35.0206H118.119V33.8546C118.119 33.5491 118.181 33.2818 118.303 33.0527C118.423 32.8209 118.591 32.6409 118.807 32.5127C119.022 32.3845 119.27 32.3204 119.551 32.3204C119.832 32.3204 120.08 32.3845 120.296 32.5127C120.511 32.6409 120.68 32.8209 120.803 33.0527C120.923 33.2818 120.983 33.5491 120.983 33.8546V35.0206ZM120.721 34.7179V33.871C120.721 33.6173 120.672 33.3978 120.574 33.2123C120.473 33.0241 120.335 32.8782 120.161 32.7745C119.983 32.6709 119.78 32.6191 119.551 32.6191C119.319 32.6191 119.116 32.6709 118.942 32.7745C118.767 32.8782 118.631 33.0241 118.532 33.2123C118.432 33.3978 118.381 33.6173 118.381 33.871V34.7179H120.721ZM120.983 31.6406H118.119V30.4746C118.119 30.1691 118.181 29.9018 118.303 29.6727C118.423 29.4409 118.591 29.2609 118.807 29.1327C119.022 29.0045 119.27 28.9404 119.551 28.9404C119.832 28.9404 120.08 29.0045 120.296 29.1327C120.511 29.2609 120.68 29.4409 120.803 29.6727C120.923 29.9018 120.983 30.1691 120.983 30.4746V31.6406ZM120.721 31.3378V30.4909C120.721 30.2373 120.672 30.0177 120.574 29.8323C120.473 29.6441 120.335 29.4981 120.161 29.3945C119.983 29.2909 119.78 29.239 119.551 29.239C119.319 29.239 119.116 29.2909 118.942 29.3945C118.767 29.4981 118.631 29.6441 118.532 29.8323C118.432 30.0177 118.381 30.2373 118.381 30.4909V31.3378H120.721ZM120.983 28.2605H118.119V27.9578H120.983V28.2605ZM120.983 27.026H118.119V26.7764L120.607 24.8004V24.9313H118.119V24.6326H120.983V24.8822L118.496 26.8542V26.7232H120.983V27.026ZM121.008 22.4419C121.008 22.6601 120.972 22.8619 120.901 23.0474C120.828 23.2301 120.725 23.3897 120.594 23.5261C120.464 23.6597 120.309 23.7647 120.132 23.8411C119.955 23.9147 119.761 23.9515 119.551 23.9515C119.341 23.9515 119.148 23.9147 118.97 23.8411C118.793 23.7647 118.639 23.6583 118.508 23.522C118.377 23.3856 118.276 23.226 118.205 23.0433C118.132 22.8578 118.095 22.656 118.095 22.4378C118.095 22.2196 118.129 22.0205 118.197 21.8405C118.265 21.6577 118.369 21.5023 118.508 21.3741L118.7 21.5623C118.58 21.6823 118.494 21.8146 118.442 21.9591C118.391 22.1037 118.365 22.2592 118.365 22.4255C118.365 22.6028 118.395 22.7665 118.455 22.9165C118.512 23.0638 118.595 23.1933 118.704 23.3051C118.811 23.4142 118.936 23.5001 119.081 23.5629C119.223 23.6229 119.379 23.6529 119.551 23.6529C119.72 23.6529 119.877 23.6229 120.022 23.5629C120.166 23.5001 120.293 23.4142 120.402 23.3051C120.509 23.1933 120.592 23.0638 120.652 22.9165C120.709 22.7665 120.738 22.6042 120.738 22.4296C120.738 22.266 120.713 22.1119 120.664 21.9673C120.615 21.82 120.532 21.685 120.414 21.5623L120.644 21.3905C120.764 21.5268 120.855 21.6864 120.918 21.8691C120.978 22.0519 121.008 22.2428 121.008 22.4419ZM120.607 21.6809H119.551V21.3905H120.644L120.607 21.6809Z" fill="#DAA63E"/>
<path d="M22.4147 157.408H19.6736L19.8127 157.277V158.083H19.5509V157.114H22.4147V157.408ZM22.4147 155.926L19.6818 154.69L19.8127 154.6V156.372L19.6695 156.22H20.3486V156.511H19.5509V154.408H19.7595L22.4147 155.607V155.926ZM21.531 152.646C21.531 152.706 21.5092 152.758 21.4655 152.802C21.4219 152.843 21.3687 152.863 21.306 152.863C21.2405 152.863 21.1873 152.843 21.1464 152.802C21.1028 152.758 21.081 152.706 21.081 152.646C21.081 152.584 21.1028 152.532 21.1464 152.491C21.1873 152.45 21.2405 152.43 21.306 152.43C21.3687 152.43 21.4219 152.45 21.4655 152.491C21.5092 152.532 21.531 152.584 21.531 152.646ZM22.4393 149.342C22.4393 149.558 22.4038 149.758 22.3329 149.944C22.2592 150.126 22.157 150.286 22.026 150.422C21.8924 150.556 21.7383 150.661 21.5637 150.737C21.3864 150.811 21.1928 150.848 20.9828 150.848C20.7728 150.848 20.5805 150.811 20.4059 150.737C20.2286 150.661 20.0745 150.556 19.9436 150.422C19.81 150.286 19.7077 150.126 19.6368 149.944C19.5631 149.761 19.5263 149.56 19.5263 149.342C19.5263 149.127 19.5631 148.928 19.6368 148.745C19.7077 148.562 19.8086 148.404 19.9395 148.27C20.0704 148.134 20.2245 148.029 20.4018 147.955C20.5791 147.879 20.7728 147.841 20.9828 147.841C21.1928 147.841 21.3864 147.879 21.5637 147.955C21.741 148.029 21.8951 148.134 22.026 148.27C22.157 148.404 22.2592 148.562 22.3329 148.745C22.4038 148.928 22.4393 149.127 22.4393 149.342ZM22.1692 149.342C22.1692 149.17 22.1406 149.012 22.0833 148.868C22.0233 148.72 21.9401 148.593 21.8338 148.487C21.7247 148.378 21.5992 148.293 21.4574 148.233C21.3128 148.173 21.1546 148.143 20.9828 148.143C20.811 148.143 20.6541 148.173 20.5123 148.233C20.3677 148.293 20.2423 148.378 20.1359 148.487C20.0268 148.593 19.9436 148.72 19.8863 148.868C19.8263 149.012 19.7963 149.17 19.7963 149.342C19.7963 149.514 19.8263 149.673 19.8863 149.821C19.9436 149.968 20.0268 150.096 20.1359 150.205C20.2423 150.312 20.3677 150.396 20.5123 150.459C20.6541 150.519 20.811 150.549 20.9828 150.549C21.1519 150.549 21.3087 150.519 21.4533 150.459C21.5978 150.396 21.7247 150.312 21.8338 150.205C21.9401 150.096 22.0233 149.968 22.0833 149.821C22.1406 149.673 22.1692 149.514 22.1692 149.342ZM22.4393 145.918C22.4393 146.134 22.4038 146.333 22.3329 146.516C22.2592 146.698 22.157 146.857 22.026 146.99C21.8951 147.124 21.741 147.229 21.5637 147.305C21.3864 147.379 21.1928 147.416 20.9828 147.416C20.7728 147.416 20.5791 147.379 20.4018 147.305C20.2245 147.229 20.0704 147.124 19.9395 146.99C19.8086 146.854 19.7077 146.694 19.6368 146.512C19.5631 146.329 19.5263 146.13 19.5263 145.914C19.5263 145.707 19.5618 145.512 19.6327 145.329C19.7009 145.146 19.8045 144.992 19.9436 144.867L20.1359 145.059C20.0159 145.176 19.93 145.306 19.8782 145.448C19.8236 145.59 19.7963 145.742 19.7963 145.906C19.7963 146.078 19.8263 146.237 19.8863 146.385C19.9436 146.532 20.0268 146.66 20.1359 146.769C20.2423 146.878 20.3677 146.964 20.5123 147.027C20.6541 147.087 20.811 147.117 20.9828 147.117C21.1546 147.117 21.3128 147.087 21.4574 147.027C21.5992 146.964 21.7247 146.878 21.8338 146.769C21.9401 146.66 22.0233 146.532 22.0833 146.385C22.1406 146.237 22.1692 146.078 22.1692 145.906C22.1692 145.742 22.142 145.59 22.0874 145.448C22.0329 145.306 21.9456 145.176 21.8256 145.059L22.0179 144.867C22.157 144.992 22.262 145.146 22.3329 145.329C22.4038 145.512 22.4393 145.708 22.4393 145.918ZM22.4147 143.701H19.8127V144.707H19.5509V142.392H19.8127V143.398H22.4147V143.701ZM22.4393 140.696C22.4393 140.912 22.4038 141.112 22.3329 141.298C22.2592 141.48 22.157 141.64 22.026 141.776C21.8924 141.91 21.7383 142.015 21.5637 142.091C21.3864 142.165 21.1928 142.202 20.9828 142.202C20.7728 142.202 20.5805 142.165 20.4059 142.091C20.2286 142.015 20.0745 141.91 19.9436 141.776C19.81 141.64 19.7077 141.48 19.6368 141.298C19.5631 141.115 19.5263 140.914 19.5263 140.696C19.5263 140.481 19.5631 140.282 19.6368 140.099C19.7077 139.916 19.8086 139.758 19.9395 139.624C20.0704 139.488 20.2245 139.383 20.4018 139.309C20.5791 139.233 20.7728 139.195 20.9828 139.195C21.1928 139.195 21.3864 139.233 21.5637 139.309C21.741 139.383 21.8951 139.488 22.026 139.624C22.157 139.758 22.2592 139.916 22.3329 140.099C22.4038 140.282 22.4393 140.481 22.4393 140.696ZM22.1692 140.696C22.1692 140.524 22.1406 140.366 22.0833 140.222C22.0233 140.074 21.9401 139.948 21.8338 139.841C21.7247 139.732 21.5992 139.648 21.4574 139.588C21.3128 139.528 21.1546 139.498 20.9828 139.498C20.811 139.498 20.6541 139.528 20.5123 139.588C20.3677 139.648 20.2423 139.732 20.1359 139.841C20.0268 139.948 19.9436 140.074 19.8863 140.222C19.8263 140.366 19.7963 140.524 19.7963 140.696C19.7963 140.868 19.8263 141.028 19.8863 141.175C19.9436 141.322 20.0268 141.45 20.1359 141.559C20.2423 141.666 20.3677 141.75 20.5123 141.813C20.6541 141.873 20.811 141.903 20.9828 141.903C21.1519 141.903 21.3087 141.873 21.4533 141.813C21.5978 141.75 21.7247 141.666 21.8338 141.559C21.9401 141.45 22.0233 141.322 22.0833 141.175C22.1406 141.028 22.1692 140.868 22.1692 140.696ZM22.4147 138.516H19.5509V137.281C19.5509 136.962 19.615 136.715 19.7431 136.54C19.8713 136.363 20.0527 136.274 20.2873 136.274C20.4427 136.274 20.5737 136.311 20.68 136.385C20.7864 136.456 20.8669 136.554 20.9214 136.679C20.976 136.802 21.0032 136.937 21.0032 137.084L20.9051 137.015C20.9051 136.832 20.9337 136.675 20.991 136.544C21.0455 136.411 21.1287 136.307 21.2405 136.233C21.3496 136.16 21.486 136.123 21.6496 136.123C21.8924 136.123 22.0806 136.213 22.2142 136.393C22.3479 136.57 22.4147 136.839 22.4147 137.199V138.516ZM22.1651 138.213V137.203C22.1651 136.952 22.1229 136.76 22.0383 136.626C21.951 136.492 21.8133 136.426 21.6251 136.426C21.4396 136.426 21.3046 136.492 21.2201 136.626C21.1328 136.76 21.0892 136.952 21.0892 137.203V138.246H20.8396V137.301C20.8396 137.072 20.796 136.895 20.7087 136.769C20.6214 136.641 20.4918 136.577 20.32 136.577C20.1455 136.577 20.0159 136.641 19.9313 136.769C19.8441 136.895 19.8004 137.072 19.8004 137.301V138.213H22.1651ZM20.8314 135.162V133.648H21.0892V135.162H20.8314ZM22.1529 135.129V133.407H22.4147V135.432H19.5509V133.468H19.8127V135.129H22.1529ZM22.4147 132.695H19.5509V131.623C19.5509 131.38 19.5904 131.172 19.6695 130.997C19.7459 130.823 19.8577 130.689 20.005 130.596C20.1495 130.501 20.3255 130.453 20.5328 130.453C20.7346 130.453 20.9091 130.501 21.0564 130.596C21.201 130.689 21.3128 130.823 21.3919 130.997C21.4683 131.172 21.5065 131.38 21.5065 131.623V132.527L21.3674 132.392H22.4147V132.695ZM22.4147 130.739L21.3755 131.476V131.149L22.4147 130.408V130.739ZM21.3919 132.392L21.2487 132.527V131.631C21.2487 131.345 21.186 131.128 21.0605 130.981C20.9351 130.831 20.7591 130.756 20.5328 130.756C20.3036 130.756 20.1264 130.831 20.0009 130.981C19.8754 131.128 19.8127 131.345 19.8127 131.631V132.527L19.6695 132.392H21.3919ZM21.531 128.619C21.531 128.679 21.5092 128.73 21.4655 128.774C21.4219 128.815 21.3687 128.835 21.306 128.835C21.2405 128.835 21.1873 128.815 21.1464 128.774C21.1028 128.73 21.081 128.679 21.081 128.619C21.081 128.556 21.1028 128.504 21.1464 128.463C21.1873 128.422 21.2405 128.402 21.306 128.402C21.3687 128.402 21.4219 128.422 21.4655 128.463C21.5092 128.504 21.531 128.556 21.531 128.619ZM22.4147 126.873H22.2061L21.0401 125.682C20.9337 125.573 20.841 125.492 20.7619 125.437C20.68 125.382 20.6037 125.346 20.5328 125.327C20.4618 125.307 20.395 125.298 20.3323 125.298C20.1659 125.298 20.035 125.355 19.9395 125.47C19.8441 125.582 19.7963 125.748 19.7963 125.969C19.7963 126.138 19.8222 126.288 19.8741 126.419C19.9259 126.547 20.0064 126.658 20.1154 126.75L19.9354 126.959C19.8045 126.847 19.7036 126.704 19.6327 126.529C19.5618 126.355 19.5263 126.16 19.5263 125.944C19.5263 125.751 19.5577 125.583 19.6204 125.441C19.6804 125.299 19.7691 125.19 19.8863 125.114C20.0036 125.035 20.1414 124.995 20.2996 124.995C20.3923 124.995 20.4837 125.009 20.5737 125.036C20.6637 125.061 20.7591 125.107 20.86 125.175C20.9582 125.241 21.0701 125.337 21.1955 125.466L22.2674 126.558L22.1529 126.64V124.864H22.4147V126.873ZM22.4393 123.361C22.4393 123.582 22.382 123.778 22.2674 123.95C22.1501 124.122 21.9838 124.257 21.7683 124.355C21.5501 124.453 21.2883 124.503 20.9828 124.503C20.6773 124.503 20.4168 124.453 20.2014 124.355C19.9832 124.257 19.8168 124.122 19.7022 123.95C19.585 123.778 19.5263 123.582 19.5263 123.361C19.5263 123.14 19.585 122.944 19.7022 122.772C19.8168 122.6 19.9832 122.465 20.2014 122.367C20.4168 122.266 20.6773 122.216 20.9828 122.216C21.2883 122.216 21.5501 122.266 21.7683 122.367C21.9838 122.465 22.1501 122.6 22.2674 122.772C22.382 122.944 22.4393 123.14 22.4393 123.361ZM22.1692 123.361C22.1692 123.192 22.1242 123.045 22.0342 122.919C21.9415 122.794 21.8078 122.696 21.6333 122.625C21.456 122.554 21.2392 122.518 20.9828 122.518C20.7264 122.518 20.5109 122.554 20.3364 122.625C20.1591 122.696 20.0254 122.794 19.9354 122.919C19.8427 123.045 19.7963 123.192 19.7963 123.361C19.7963 123.525 19.8427 123.671 19.9354 123.799C20.0254 123.927 20.1591 124.027 20.3364 124.098C20.5109 124.168 20.7264 124.204 20.9828 124.204C21.2392 124.204 21.456 124.168 21.6333 124.098C21.8078 124.027 21.9415 123.927 22.0342 123.799C22.1242 123.671 22.1692 123.525 22.1692 123.361ZM22.4147 121.847H22.2061L21.0401 120.656C20.9337 120.547 20.841 120.465 20.7619 120.411C20.68 120.356 20.6037 120.32 20.5328 120.3C20.4618 120.281 20.395 120.272 20.3323 120.272C20.1659 120.272 20.035 120.329 19.9395 120.444C19.8441 120.555 19.7963 120.722 19.7963 120.943C19.7963 121.112 19.8222 121.262 19.8741 121.393C19.9259 121.521 20.0064 121.631 20.1154 121.724L19.9354 121.933C19.8045 121.821 19.7036 121.678 19.6327 121.503C19.5618 121.329 19.5263 121.134 19.5263 120.918C19.5263 120.725 19.5577 120.557 19.6204 120.415C19.6804 120.273 19.7691 120.164 19.8863 120.088C20.0036 120.009 20.1414 119.969 20.2996 119.969C20.3923 119.969 20.4837 119.983 20.5737 120.01C20.6637 120.035 20.7591 120.081 20.86 120.149C20.9582 120.215 21.0701 120.311 21.1955 120.44L22.2674 121.532L22.1529 121.614V119.838H22.4147V121.847ZM22.4393 118.564C22.4393 118.769 22.4065 118.964 22.3411 119.149C22.2729 119.335 22.1829 119.482 22.071 119.591L21.8378 119.448C21.9333 119.358 22.0124 119.235 22.0751 119.08C22.1379 118.922 22.1692 118.751 22.1692 118.568C22.1692 118.326 22.116 118.142 22.0097 118.016C21.9006 117.888 21.7587 117.824 21.5842 117.824C21.4615 117.824 21.3564 117.854 21.2692 117.914C21.1792 117.971 21.1096 118.069 21.0605 118.208C21.0114 118.347 20.9869 118.538 20.9869 118.781V119.391L19.5509 119.243V117.677H19.8127V119.125L19.6695 118.973L20.8723 119.1L20.725 119.252V118.716C20.725 118.427 20.7605 118.195 20.8314 118.02C20.9023 117.846 21.0019 117.72 21.1301 117.644C21.2555 117.565 21.4028 117.525 21.5719 117.525C21.7328 117.525 21.8801 117.563 22.0138 117.64C22.1447 117.716 22.2483 117.831 22.3247 117.983C22.4011 118.136 22.4393 118.33 22.4393 118.564Z" fill="#DAA63E"/>
<path d="M84.671 157.063H28.416V157.563H84.671V157.063Z" fill="#DAA63E"/>
</svg>
