<svg width="767" height="540" viewBox="0 0 767 540" fill="none" xmlns="http://www.w3.org/2000/svg">
<path d="M383.313 537.216C531.108 537.216 650.921 417.404 650.921 269.608C650.921 121.812 531.108 2 383.313 2C235.517 2 115.705 121.812 115.705 269.608C115.705 417.404 235.517 537.216 383.313 537.216Z" stroke="#DAA63E" stroke-width="4" stroke-miterlimit="10"/>
<path d="M299.75 214.85C298.65 214.85 297.55 214.85 296.45 214.85C295.35 214.85 294.25 214.8 293.15 214.7C285.25 214.3 278.85 211.7 273.95 206.9C269.05 202.1 266.6 195.55 266.6 187.25C266.6 180.05 268.65 171.9 272.75 162.8C277.95 151.3 287.75 140.4 302.15 130.1C310.45 124.2 319.3 119.5 328.7 116C338.1 112.4 347.6 110.6 357.2 110.6C362.8 110.6 367.9 111.35 372.5 112.85C377.2 114.35 380.9 116.6 383.6 119.6C386.4 122.6 387.8 126.4 387.8 131C387.8 132.6 387.6 134.3 387.2 136.1C386.8 137.8 386.15 139.5 385.25 141.2L383.6 144.35C384.4 147.05 384.8 149.8 384.8 152.6C384.8 165.1 378.4 177.05 365.6 188.45C346 206.05 324.05 214.85 299.75 214.85ZM298.85 211.85C318.55 211.85 337.3 203.9 355.1 188C367.9 176.6 374.8 165.75 375.8 155.45C370.6 161.15 361.6 167.95 348.8 175.85L347.6 176.15C346.8 176.15 348.1 174.75 351.5 171.95L359.9 165.05C363.5 162.05 366.6 159.25 369.2 156.65C371.8 154.05 373.95 151.7 375.65 149.6C374.95 144 372.25 139.2 367.55 135.2C363.55 131.7 358.75 129.1 353.15 127.4C350.35 126.7 345.75 126.25 339.35 126.05C334.05 125.85 331.4 125.6 331.4 125.3C331.4 125.2 331.5 125.05 331.7 124.85C336.4 123.35 340.9 122.6 345.2 122.6C347.2 122.6 349.4 122.75 351.8 123.05C354.2 123.35 356.8 123.85 359.6 124.55C370.1 127.05 377.45 132.15 381.65 139.85C382.65 137.45 383.15 135 383.15 132.5C383.15 128.4 381.95 124.95 379.55 122.15C377.25 119.35 374.1 117.25 370.1 115.85C366.2 114.45 361.85 113.75 357.05 113.75C341.95 113.75 327.45 118.6 313.55 128.3C300.65 137.3 290.45 148.9 282.95 163.1C277.45 173.4 274.7 182.65 274.7 190.85C274.7 204.05 281.35 211 294.65 211.7C295.35 211.8 296.05 211.85 296.75 211.85C297.45 211.85 298.15 211.85 298.85 211.85ZM411.377 207.8C408.077 207.8 405.127 206.85 402.527 204.95C400.027 203.05 397.827 200.65 395.927 197.75C394.127 194.85 392.577 191.95 391.277 189.05C390.577 189.95 389.827 191.1 389.027 192.5C388.327 193.9 387.477 195.55 386.477 197.45L381.827 206.75C378.227 205.35 376.427 203.45 376.427 201.05C376.427 196.75 382.977 184.8 396.077 165.2C408.777 146.2 417.527 135 422.327 131.6C422.827 131.3 423.627 131.15 424.727 131.15C427.827 131.15 429.377 131.95 429.377 133.55C429.377 133.85 428.677 134.95 427.277 136.85C425.877 138.65 424.127 140.85 422.027 143.45C419.927 146.05 417.777 148.7 415.577 151.4C413.477 154 411.627 156.3 410.027 158.3C408.427 160.2 407.527 161.4 407.327 161.9C416.427 157.2 423.677 154.85 429.077 154.85C431.177 154.85 433.077 155.45 434.777 156.65C436.577 157.85 437.977 159.3 438.977 161C439.977 162.7 440.377 164.35 440.177 165.95C439.377 171.65 435.377 176.35 428.177 180.05C422.377 183.15 417.077 184.7 412.277 184.7C407.077 184.7 403.477 184.05 401.477 182.75C400.877 182.65 400.377 182.8 399.977 183.2C399.677 183.5 399.627 184 399.827 184.7C402.627 197.1 407.277 203.3 413.777 203.3C416.977 203.3 421.227 201.45 426.527 197.75C431.927 194.05 437.627 188.65 443.627 181.55C444.327 180.85 444.977 180.5 445.577 180.5C446.077 180.5 446.327 180.8 446.327 181.4C446.327 181.9 445.977 182.65 445.277 183.65C442.377 187.15 438.977 190.8 435.077 194.6C431.277 198.3 427.327 201.45 423.227 204.05C419.127 206.55 415.177 207.8 411.377 207.8ZM402.677 180.8C407.177 180.8 413.077 178.95 420.377 175.25C428.777 171.05 432.977 166.6 432.977 161.9C432.977 161.1 432.527 160.3 431.627 159.5C430.727 158.7 429.777 158.3 428.777 158.3C423.377 158.3 417.077 160.4 409.877 164.6C401.977 169.4 397.177 174.65 395.477 180.35C396.577 180.35 397.977 180.45 399.677 180.65C401.477 180.75 402.477 180.8 402.677 180.8ZM449.71 206.75C447.31 206.75 444.91 205.9 442.51 204.2C440.11 202.5 438.76 200.5 438.46 198.2C437.46 190.5 442.31 181.35 453.01 170.75C463.61 160.15 473.16 154.85 481.66 154.85C483.96 154.85 485.76 155.4 487.06 156.5C487.76 157.2 488.26 158.15 488.56 159.35C488.96 160.55 489.26 161.15 489.46 161.15C489.86 161.15 490.21 161.1 490.51 161C490.81 160.8 491.16 160.7 491.56 160.7C492.76 160.7 493.81 161.15 494.71 162.05C495.61 162.95 496.11 163.75 496.21 164.45C496.31 164.65 493.11 169.6 486.61 179.3C480.11 188.8 477.16 195.25 477.76 198.65C478.26 200.95 479.36 202.1 481.06 202.1C486.26 202.1 495.76 193.5 509.56 176.3C509.86 175.9 510.16 175.7 510.46 175.7C510.96 175.7 511.21 176.05 511.21 176.75C511.21 177.55 510.76 178.55 509.86 179.75C497.16 196.85 487.41 205.4 480.61 205.4C479.71 205.4 478.86 205.25 478.06 204.95C473.66 203.25 471.46 199.95 471.46 195.05C471.46 193.35 471.66 191.65 472.06 189.95L462.76 198.95C459.96 201.75 457.41 203.75 455.11 204.95C452.91 206.15 451.11 206.75 449.71 206.75ZM448.36 203.45C454.16 203.45 462.06 197.1 472.06 184.4L487.96 162.5C487.16 161.1 485.86 160.4 484.06 160.4C477.96 160.4 469.71 165.3 459.31 175.1C448.51 185.1 443.66 193.35 444.76 199.85C445.26 202.25 446.46 203.45 448.36 203.45Z" fill="#DAA63E"/>
<path d="M345.75 431.05C343.95 431.05 342.75 430.6 342.15 429.7C340.35 427.1 339.45 423.95 339.45 420.25C339.45 411.65 344.05 399.3 353.25 383.2C359.15 373.1 368.25 359.5 380.55 342.4C375.35 346.7 369.7 351.65 363.6 357.25C357.5 362.85 350.95 369.05 343.95 375.85C334.85 384.75 327.4 392.6 321.6 399.4C315.9 406.1 311.8 411.65 309.3 416.05C306.7 420.75 303.55 423.1 299.85 423.1C298.15 423.1 297.3 422.5 297.3 421.3C297.3 420.9 297.45 420.5 297.75 420.1C299.45 417.4 301.65 413.85 304.35 409.45C307.05 404.95 310.25 399.6 313.95 393.4C324.75 374.6 332.5 359.65 337.2 348.55C338.9 344.35 339.75 341.3 339.75 339.4C339.75 337.8 339.2 337 338.1 337C336.6 337 334.25 338.35 331.05 341.05C319.95 350.35 307.5 363.3 293.7 379.9C287.9 386.8 282.8 393.2 278.4 399.1C274.1 404.9 270.45 410.15 267.45 414.85C265.05 418.55 263.85 421.2 263.85 422.8C263.85 423.4 264.05 423.8 264.45 424C264.95 424.3 265.2 424.45 265.2 424.45C265.2 424.55 264.3 425.3 262.5 426.7C260.9 427.5 259.1 427.9 257.1 427.9C253 427.9 251.25 426.95 251.85 425.05C253.25 420.55 257.9 412.4 265.8 400.6C276.1 385.3 282.8 374.85 285.9 369.25C292.6 357.15 295.95 347.5 295.95 340.3C295.95 335.3 294.65 331.75 292.05 329.65C289.45 327.55 285.5 326.5 280.2 326.5C268.5 326.5 256.4 331.55 243.9 341.65C238.5 346.05 233.45 351.05 228.75 356.65C224.05 362.15 220.25 367.9 217.35 373.9C214.45 379.9 213 385.8 213 391.6C213 402 217.9 407.2 227.7 407.2C239.2 407.2 248.1 403.05 254.4 394.75C256.8 391.45 258 388.35 258 385.45C258 383.75 257.5 382.6 256.5 382C256.4 381.9 256.35 381.75 256.35 381.55C256.35 381.15 256.65 380.95 257.25 380.95C259.85 380.95 261.15 382.65 261.15 386.05C261.15 388.15 260.25 390.8 258.45 394C256.15 398 252.7 401.4 248.1 404.2C242.3 407.8 235.9 409.6 228.9 409.6C222.1 409.6 216.65 407.45 212.55 403.15C208.45 398.85 206.4 393.2 206.4 386.2C206.4 370.4 216.7 354.25 237.3 337.75C241.1 334.75 245.6 332.2 250.8 330.1C256.1 327.9 261.55 326.25 267.15 325.15C272.75 323.95 277.9 323.35 282.6 323.35C289.4 323.35 294.55 324.5 298.05 326.8C301.65 329 303.45 332.9 303.45 338.5C303.45 345.5 300.6 354.95 294.9 366.85C293.1 370.55 289.05 377.3 282.75 387.1L294.3 372.4C297.2 368.6 301.1 364.1 306 358.9C310.9 353.7 316.7 347.8 323.4 341.2C326.3 338.4 329.6 336 333.3 334C337 332 340.15 331 342.75 331C346.35 331 348.15 332.9 348.15 336.7C348.15 340 346.8 344.5 344.1 350.2C340.5 357.8 336 366.65 330.6 376.75C328.9 379.85 327.75 382.5 327.15 384.7C326.55 386.9 326.15 388.15 325.95 388.45C326.35 387.95 327.3 386.8 328.8 385C330.4 383.1 332.6 380.55 335.4 377.35C338.8 373.55 342.85 369.4 347.55 364.9C352.25 360.3 357.65 355.4 363.75 350.2L387.75 330.4C389.65 328.8 391.35 328 392.85 328C394.25 328 395.25 328.85 395.85 330.55C396.55 332.15 397.25 334.25 397.95 336.85C398.45 338.55 396.05 342.1 390.75 347.5C378.25 360.3 367.45 374.6 358.35 390.4C350.05 405 345.9 415.55 345.9 422.05C345.9 424.95 346.85 426.4 348.75 426.4C349.95 426.4 352.95 425.35 357.75 423.25C361.95 421.35 364.7 420.25 366 419.95C366.5 420.15 366.75 420.4 366.75 420.7C366.75 422.2 364.1 424.3 358.8 427C353.6 429.7 349.25 431.05 345.75 431.05ZM407.511 369.4C405.811 369.4 404.311 368.85 403.011 367.75C401.811 366.65 401.211 365.4 401.211 364C401.211 361.2 403.111 359.8 406.911 359.8C408.311 359.8 409.711 360.3 411.111 361.3C412.511 362.2 413.211 363.35 413.211 364.75C413.211 365.95 412.561 367.05 411.261 368.05C409.961 368.95 408.711 369.4 407.511 369.4ZM379.761 422.65C377.561 422.65 375.761 421.95 374.361 420.55C372.861 419.05 372.111 416.45 372.111 412.75C372.111 410.65 372.611 408.25 373.611 405.55C374.511 402.75 375.661 399.95 377.061 397.15C378.561 394.35 380.011 391.85 381.411 389.65C387.011 380.55 391.611 375.95 395.211 375.85C396.111 375.85 397.211 376.25 398.511 377.05C399.811 377.75 400.461 378.55 400.461 379.45C400.461 379.45 396.661 384.35 389.061 394.15C381.561 403.85 377.811 410.75 377.811 414.85C377.811 418.05 379.061 419.65 381.561 419.65C383.161 419.65 385.211 419 387.711 417.7C390.311 416.3 393.011 414.55 395.811 412.45C398.611 410.35 401.261 408.1 403.761 405.7C406.361 403.3 408.461 401.1 410.061 399.1C411.061 397.8 411.911 396.9 412.611 396.4C413.411 395.9 413.911 395.65 414.111 395.65C414.511 395.65 414.711 395.95 414.711 396.55C414.711 397.05 414.111 398.05 412.911 399.55C411.811 401.05 410.261 402.8 408.261 404.8C405.861 407.2 403.211 409.8 400.311 412.6C397.411 415.4 394.261 417.8 390.861 419.8C387.461 421.7 383.761 422.65 379.761 422.65ZM417.499 421.9C414.299 421.9 411.749 421.15 409.849 419.65C408.049 418.05 407.149 415.25 407.149 411.25C407.149 408.95 407.849 406.05 409.249 402.55C410.649 398.95 412.399 395.1 414.499 391C416.599 386.9 418.699 382.85 420.799 378.85C419.499 379.15 418.349 379.3 417.349 379.3C414.349 379.3 412.849 378.15 412.849 375.85C412.849 374.75 413.249 373.9 414.049 373.3C414.949 372.7 415.749 372.35 416.449 372.25C416.449 372.25 416.549 372.25 416.749 372.25C417.049 372.25 417.399 372.2 417.799 372.1H426.499C428.299 369.8 430.149 367.35 432.049 364.75C434.749 361.35 436.899 359.35 438.499 358.75H438.949C439.649 358.75 440.649 359.1 441.949 359.8C443.549 360.7 444.349 361.6 444.349 362.5C444.349 363.8 441.949 367.15 437.149 372.55C438.049 372.65 439.349 372.7 441.049 372.7C442.749 372.7 444.849 372.7 447.349 372.7C448.549 372.7 450.249 372.7 452.449 372.7C454.749 372.7 457.099 372.7 459.499 372.7C461.999 372.6 464.149 372.55 465.949 372.55C467.749 372.45 468.749 372.4 468.949 372.4C469.249 372.5 469.399 372.65 469.399 372.85C469.399 373.75 463.499 374.95 451.699 376.45C444.999 377.35 439.849 378.05 436.249 378.55C432.749 379.05 430.849 379.35 430.549 379.45C429.149 380.65 427.449 382.7 425.449 385.6C423.449 388.5 421.449 391.75 419.449 395.35C417.449 398.95 415.749 402.4 414.349 405.7C413.049 408.9 412.399 411.4 412.399 413.2C412.399 414.8 412.999 416.15 414.199 417.25C415.399 418.25 417.349 418.75 420.049 418.75C421.849 418.75 423.999 418.35 426.499 417.55C428.999 416.75 431.349 415.85 433.549 414.85C435.849 413.75 437.499 412.9 438.499 412.3C441.099 410.7 443.949 408.6 447.049 406C450.249 403.3 453.399 400.25 456.499 396.85C457.899 395.45 458.849 394.75 459.349 394.75C459.649 394.75 459.799 394.95 459.799 395.35C459.799 396.15 459.049 397.45 457.549 399.25C455.149 402.15 452.449 404.95 449.449 407.65C446.549 410.25 443.299 412.65 439.699 414.85C435.599 417.35 431.649 419.15 427.849 420.25C424.149 421.35 420.699 421.9 417.499 421.9ZM462.78 421.75C460.38 421.75 457.98 420.9 455.58 419.2C453.18 417.5 451.83 415.5 451.53 413.2C450.53 405.5 455.38 396.35 466.08 385.75C476.68 375.15 486.23 369.85 494.73 369.85C497.03 369.85 498.83 370.4 500.13 371.5C500.83 372.2 501.33 373.15 501.63 374.35C502.03 375.55 502.33 376.15 502.53 376.15C502.93 376.15 503.28 376.1 503.58 376C503.88 375.8 504.23 375.7 504.63 375.7C505.83 375.7 506.88 376.15 507.78 377.05C508.68 377.95 509.18 378.75 509.28 379.45C509.38 379.65 506.18 384.6 499.68 394.3C493.18 403.8 490.23 410.25 490.83 413.65C491.33 415.95 492.43 417.1 494.13 417.1C499.33 417.1 508.83 408.5 522.63 391.3C522.93 390.9 523.23 390.7 523.53 390.7C524.03 390.7 524.28 391.05 524.28 391.75C524.28 392.55 523.83 393.55 522.93 394.75C510.23 411.85 500.48 420.4 493.68 420.4C492.78 420.4 491.93 420.25 491.13 419.95C486.73 418.25 484.53 414.95 484.53 410.05C484.53 408.35 484.73 406.65 485.13 404.95L475.83 413.95C473.03 416.75 470.48 418.75 468.18 419.95C465.98 421.15 464.18 421.75 462.78 421.75ZM461.43 418.45C467.23 418.45 475.13 412.1 485.13 399.4L501.03 377.5C500.23 376.1 498.93 375.4 497.13 375.4C491.03 375.4 482.78 380.3 472.38 390.1C461.58 400.1 456.73 408.35 457.83 414.85C458.33 417.25 459.53 418.45 461.43 418.45Z" fill="#DAA63E"/>
<path d="M382.18 300.38C379.66 300.38 377.397 299.89 375.39 298.91C373.43 297.93 371.867 296.553 370.7 294.78C369.533 293.007 368.95 290.93 368.95 288.55C368.95 288.27 368.95 288.013 368.95 287.78C368.95 287.5 368.973 287.22 369.02 286.94C366.78 286.707 364.727 286.24 362.86 285.54C361.04 284.84 359.593 283.883 358.52 282.67C357.447 281.41 356.91 279.87 356.91 278.05C356.91 276.37 357.423 274.783 358.45 273.29C359.477 271.75 360.76 270.327 362.3 269.02C363.887 267.667 365.543 266.5 367.27 265.52C370.49 263.56 373.64 262.09 376.72 261.11C376.113 260.363 375.623 259.5 375.25 258.52C374.923 257.493 374.76 256.513 374.76 255.58C374.76 253.9 375.367 252.407 376.58 251.1C377.84 249.747 379.45 248.603 381.41 247.67C383.37 246.737 385.447 246.013 387.64 245.5C389.833 244.987 391.863 244.73 393.73 244.73C398.677 244.73 401.15 246.247 401.15 249.28C401.15 250.68 400.613 251.893 399.54 252.92C398.467 253.947 397.277 254.46 395.97 254.46C394.71 254.46 394.08 254.133 394.08 253.48C394.08 253.013 394.383 252.78 394.99 252.78C395.177 252.78 395.41 252.827 395.69 252.92C395.783 252.967 395.947 252.99 396.18 252.99C396.787 252.99 397.37 252.64 397.93 251.94C398.677 251.053 399.05 250.213 399.05 249.42C399.05 248.16 398.327 247.25 396.88 246.69C395.947 246.363 394.757 246.2 393.31 246.2C391.443 246.2 389.577 246.527 387.71 247.18C385.89 247.787 384.21 248.65 382.67 249.77C381.177 250.843 379.963 252.08 379.03 253.48C378.097 254.88 377.63 256.373 377.63 257.96C377.63 259.08 377.91 259.967 378.47 260.62C380.243 260.107 381.807 259.85 383.16 259.85C385.867 259.85 387.22 260.387 387.22 261.46C387.22 262.067 386.823 262.603 386.03 263.07C385.237 263.49 384.373 263.7 383.44 263.7C381.107 263.7 379.123 263.093 377.49 261.88C376.183 262.253 374.807 262.837 373.36 263.63C371.913 264.423 370.397 265.403 368.81 266.57C366.663 268.157 364.797 269.93 363.21 271.89C361.623 273.803 360.83 275.857 360.83 278.05C360.83 282.203 363.653 284.513 369.3 284.98C369.813 281.667 370.91 278.68 372.59 276.02C374.317 273.36 376.58 271.167 379.38 269.44C380.967 268.46 382.763 267.69 384.77 267.13C386.823 266.523 388.877 266.057 390.93 265.73C393.03 265.357 394.943 265.03 396.67 264.75C398.957 264.377 400.8 263.957 402.2 263.49C403.6 263.023 404.65 262.533 405.35 262.02C405.863 261.647 406.237 261.227 406.47 260.76C406.75 260.293 406.89 259.873 406.89 259.5C406.89 259.22 406.843 258.963 406.75 258.73C406.657 258.45 406.773 258.31 407.1 258.31C407.427 258.31 407.683 258.52 407.87 258.94C408.057 259.36 408.15 259.757 408.15 260.13C408.15 261.063 407.683 262.067 406.75 263.14C405.723 264.167 404.487 264.937 403.04 265.45C401.593 265.963 400.077 266.36 398.49 266.64C396.903 266.92 395.34 267.247 393.8 267.62C394.687 268.46 395.13 269.72 395.13 271.4C395.13 274.853 393.17 278.167 389.25 281.34C386.543 283.487 383.65 284.98 380.57 285.82C377.537 286.613 374.27 287.01 370.77 287.01C370.723 287.29 370.677 287.593 370.63 287.92C370.63 288.2 370.63 288.48 370.63 288.76C370.63 291.887 371.68 294.43 373.78 296.39C375.927 298.35 378.727 299.33 382.18 299.33C383.347 299.33 384.35 298.933 385.19 298.14C386.03 297.393 386.45 296.53 386.45 295.55C386.45 295.223 386.38 294.897 386.24 294.57C386.193 294.477 386.17 294.36 386.17 294.22C386.17 293.94 386.357 293.8 386.73 293.8C387.243 293.8 387.5 294.407 387.5 295.62C387.5 296.88 386.963 297.977 385.89 298.91C384.817 299.89 383.58 300.38 382.18 300.38ZM383.09 262.58C384.257 262.58 384.933 262.3 385.12 261.74C385.167 261.273 384.49 261.04 383.09 261.04C381.97 261.04 380.71 261.18 379.31 261.46C380.477 262.207 381.737 262.58 383.09 262.58ZM370.98 285.05C374.013 285.05 377.117 284.56 380.29 283.58C383.51 282.6 386.217 281.107 388.41 279.1C391.35 276.44 392.82 273.71 392.82 270.91C392.82 268.857 391.933 267.83 390.16 267.83C389.647 267.83 388.503 268.04 386.73 268.46C377.723 271.82 372.473 277.35 370.98 285.05Z" fill="#DAA63E"/>
<path d="M487.751 515.791C487.751 515.791 553.265 471.163 528.816 385.039C528.816 385.039 552.545 412.828 550.952 446.254C548.958 488.168 487.751 515.791 487.751 515.791Z" stroke="#DAA63E" stroke-width="2.75" stroke-miterlimit="10"/>
<path d="M487.751 515.791C487.751 515.791 531.041 485.701 539.211 454.843C549.217 417.056 528.816 385.039 528.816 385.039" stroke="#DAA63E" stroke-width="2.75" stroke-miterlimit="10"/>
<path d="M588.84 440.718C588.84 440.718 619.744 367.72 552.55 308.562C552.55 308.562 587.548 319.069 604.315 348.034C625.335 384.349 588.84 440.718 588.84 440.718Z" stroke="#DAA63E" stroke-width="2.75" stroke-miterlimit="10"/>
<path d="M588.84 440.718C588.84 440.718 608.935 391.98 599.092 361.611C587.038 324.426 552.55 308.562 552.55 308.562" stroke="#DAA63E" stroke-width="2.75" stroke-miterlimit="10"/>
<path d="M544.434 483.443C544.434 483.443 621.425 436.089 699.638 501.695C699.638 501.695 681.792 464.042 646.267 450.109C601.718 432.636 544.434 483.443 544.434 483.443Z" stroke="#DAA63E" stroke-width="2.75" stroke-miterlimit="10"/>
<path d="M544.434 483.443C544.434 483.443 595.931 452.434 631.853 458.322C675.837 465.535 699.638 501.695 699.638 501.695" stroke="#DAA63E" stroke-width="2.75" stroke-miterlimit="10"/>
<path d="M610.838 411.319C610.838 411.319 662.95 337.463 760.682 366.954C760.682 366.954 729.443 339.378 691.304 340.566C643.478 342.054 610.838 411.319 610.838 411.319Z" stroke="#DAA63E" stroke-width="2.75" stroke-miterlimit="10"/>
<path d="M610.838 411.319C610.838 411.319 645.957 362.526 681.294 353.791C724.563 343.091 760.682 366.954 760.682 366.954" stroke="#DAA63E" stroke-width="2.75" stroke-miterlimit="10"/>
<path d="M629.52 374.64C629.52 374.64 653.011 293.061 610.253 247.313" stroke="#DAA63E" stroke-width="2.75" stroke-miterlimit="10"/>
<path d="M597.173 207.724C590.245 219.373 594.455 229.187 598.846 235.107C600.343 233.682 602.358 232.787 604.595 232.783C607.045 232.778 609.228 233.845 610.763 235.517C631.306 212.327 604.491 181.506 604.491 181.506C604.491 181.506 608.601 188.519 597.173 207.724Z" stroke="#DAA63E" stroke-width="2.75" stroke-miterlimit="10"/>
<path d="M610.662 235.396C612.088 236.897 612.983 238.908 612.987 241.145C612.991 243.596 611.925 245.778 610.253 247.313C633.442 267.856 664.263 241.041 664.263 241.041C664.263 241.041 657.255 245.147 638.05 233.723C626.397 226.795 616.583 231.01 610.662 235.396Z" fill="white" stroke="#DAA63E" stroke-width="2.75" stroke-miterlimit="10"/>
<path d="M604.628 249.537C602.178 249.542 599.996 248.475 598.461 246.803C577.918 269.993 604.733 300.809 604.733 300.809C604.733 300.809 600.623 293.801 612.05 274.596C618.979 262.947 614.764 253.133 610.378 247.213C608.877 248.643 606.861 249.533 604.628 249.537Z" stroke="#DAA63E" stroke-width="2.75" stroke-miterlimit="10"/>
<path d="M596.237 241.179C596.232 238.728 597.299 236.546 598.971 235.011C575.781 214.468 544.96 241.283 544.96 241.283C544.96 241.283 551.968 237.177 571.173 248.601C582.823 255.529 592.636 251.319 598.557 246.928C597.131 245.427 596.241 243.412 596.237 241.179Z" stroke="#DAA63E" stroke-width="2.75" stroke-miterlimit="10"/>
<path d="M604.729 300.814C604.729 300.814 597.094 285.756 600.581 273.81C604.064 261.864 606.126 256.859 603.671 249.483" stroke="#DAA63E" stroke-width="2.75" stroke-miterlimit="10"/>
<path d="M604.491 181.51C604.491 181.51 612.122 196.568 608.638 208.514C605.155 220.46 603.094 225.461 605.548 232.841" stroke="#DAA63E" stroke-width="2.75" stroke-miterlimit="10"/>
<path d="M664.259 241.041C664.259 241.041 649.202 248.672 637.256 245.189C625.31 241.706 620.309 239.644 612.929 242.099" stroke="#DAA63E" stroke-width="2.75" stroke-miterlimit="10"/>
<path d="M544.96 241.279C544.96 241.279 560.017 233.648 571.964 237.131C583.91 240.618 588.911 242.676 596.291 240.221" stroke="#DAA63E" stroke-width="2.75" stroke-miterlimit="10"/>
<path d="M733.691 213.084C717.116 217.261 712.098 229.755 710.71 238.95C713.319 239.017 715.907 240.025 717.902 242.015C720.085 244.198 721.08 247.1 720.95 249.96C759.954 247.677 763.625 196.292 763.625 196.292C763.625 196.292 761.016 206.202 733.691 213.084Z" stroke="#DAA63E" stroke-width="2.75" stroke-miterlimit="10"/>
<path d="M720.967 249.759C720.9 252.368 719.892 254.956 717.902 256.951C715.719 259.134 712.817 260.129 709.957 259.999C712.24 299.003 763.625 302.674 763.625 302.674C763.625 302.674 753.715 300.069 746.833 272.74C742.656 256.165 730.162 251.147 720.967 249.759Z" stroke="#DAA63E" stroke-width="2.75" stroke-miterlimit="10"/>
<path d="M702.966 256.951C700.783 254.768 699.788 251.866 699.918 249.006C660.914 251.289 657.243 302.674 657.243 302.674C657.243 302.674 659.852 292.764 687.177 285.882C703.752 281.705 708.77 269.211 710.158 260.016C707.549 259.949 704.957 258.941 702.966 256.951Z" stroke="#DAA63E" stroke-width="2.75" stroke-miterlimit="10"/>
<path d="M702.966 242.015C705.149 239.832 708.051 238.837 710.911 238.967C708.628 199.963 657.243 196.292 657.243 196.292C657.243 196.292 667.153 198.897 674.035 226.226C678.212 242.801 690.706 247.819 699.897 249.207C699.968 246.594 700.976 244.005 702.966 242.015Z" stroke="#DAA63E" stroke-width="2.75" stroke-miterlimit="10"/>
<path d="M657.243 302.674C657.243 302.674 663.904 282.457 677.677 274.939C691.451 267.421 697.752 264.808 702.163 256.052" stroke="#DAA63E" stroke-width="2.75" stroke-miterlimit="10"/>
<path d="M763.625 196.292C763.625 196.292 756.964 216.513 743.191 224.027C729.418 231.541 723.116 234.158 718.705 242.914" stroke="#DAA63E" stroke-width="2.75" stroke-miterlimit="10"/>
<path d="M763.625 302.674C763.625 302.674 743.408 296.013 735.89 282.24C728.372 268.466 725.759 262.165 717.003 257.754" stroke="#DAA63E" stroke-width="2.75" stroke-miterlimit="10"/>
<path d="M657.243 196.292C657.243 196.292 677.464 202.953 684.978 216.726C692.496 230.5 695.109 236.801 703.865 241.212" stroke="#DAA63E" stroke-width="2.75" stroke-miterlimit="10"/>
<path d="M710.167 260.049C703.848 285.146 684.756 327.512 628.166 377.751" stroke="#DAA63E" stroke-width="2.75" stroke-miterlimit="10"/>
<path d="M278.874 23.4296C278.874 23.4296 213.361 68.0574 237.809 154.181C237.809 154.181 214.08 126.392 215.669 92.9658C217.668 51.0475 278.874 23.4296 278.874 23.4296Z" stroke="#DAA63E" stroke-width="2.75" stroke-miterlimit="10"/>
<path d="M278.874 23.4296C278.874 23.4296 235.585 53.5187 227.414 84.3773C217.408 122.164 237.809 154.181 237.809 154.181" stroke="#DAA63E" stroke-width="2.75" stroke-miterlimit="10"/>
<path d="M177.786 98.502C177.786 98.502 146.881 171.5 214.076 230.658C214.076 230.658 179.078 220.151 162.31 191.186C141.291 154.871 177.786 98.502 177.786 98.502Z" stroke="#DAA63E" stroke-width="2.75" stroke-miterlimit="10"/>
<path d="M177.786 98.502C177.786 98.502 157.69 147.24 167.533 177.609C179.588 214.794 214.076 230.658 214.076 230.658" stroke="#DAA63E" stroke-width="2.75" stroke-miterlimit="10"/>
<path d="M222.192 55.7725C222.192 55.7725 145.2 103.127 66.9875 37.5208C66.9875 37.5208 84.8336 75.1741 120.359 89.1064C164.907 106.58 222.192 55.7725 222.192 55.7725Z" stroke="#DAA63E" stroke-width="2.75" stroke-miterlimit="10"/>
<path d="M222.192 55.7725C222.192 55.7725 170.694 86.7815 134.772 80.8942C90.7879 73.6855 66.9875 37.525 66.9875 37.525" stroke="#DAA63E" stroke-width="2.75" stroke-miterlimit="10"/>
<path d="M155.787 127.901C155.787 127.901 103.675 201.753 5.94366 172.265C5.94366 172.265 37.1785 199.842 75.321 198.654C123.148 197.166 155.787 127.901 155.787 127.901Z" stroke="#DAA63E" stroke-width="2.75" stroke-miterlimit="10"/>
<path d="M155.787 127.901C155.787 127.901 120.668 176.689 85.3312 185.428C42.0624 196.129 5.94366 172.265 5.94366 172.265" stroke="#DAA63E" stroke-width="2.75" stroke-miterlimit="10"/>
<path d="M137.105 164.58C137.105 164.58 113.614 246.159 156.373 291.907" stroke="#DAA63E" stroke-width="2.75" stroke-miterlimit="10"/>
<path d="M169.452 331.492C176.381 319.843 172.17 310.029 167.78 304.108C166.283 305.534 164.267 306.429 162.03 306.433C159.58 306.437 157.397 305.371 155.863 303.699C135.319 326.889 162.135 357.709 162.135 357.709C162.135 357.709 158.024 350.697 169.452 331.492Z" stroke="#DAA63E" stroke-width="2.75" stroke-miterlimit="10"/>
<path d="M155.963 303.82C154.537 302.319 153.642 300.308 153.638 298.071C153.634 295.62 154.7 293.438 156.373 291.903C133.183 271.36 102.366 298.175 102.366 298.175C102.366 298.175 109.374 294.069 128.579 305.492C140.228 312.421 150.042 308.21 155.963 303.82Z" fill="white" stroke="#DAA63E" stroke-width="2.75" stroke-miterlimit="10"/>
<path d="M161.997 289.683C164.447 289.678 166.63 290.741 168.164 292.417C188.707 269.227 161.892 238.411 161.892 238.411C161.892 238.411 165.998 245.419 154.575 264.624C147.646 276.273 151.857 286.087 156.247 292.007C157.748 290.577 159.764 289.687 161.997 289.683Z" stroke="#DAA63E" stroke-width="2.75" stroke-miterlimit="10"/>
<path d="M170.389 298.041C170.393 300.491 169.327 302.674 167.654 304.209C190.844 324.752 221.661 297.937 221.661 297.937C221.661 297.937 214.653 302.043 195.448 290.619C183.798 283.691 173.985 287.901 168.064 292.292C169.494 293.793 170.385 295.808 170.389 298.041Z" stroke="#DAA63E" stroke-width="2.75" stroke-miterlimit="10"/>
<path d="M161.896 238.406C161.896 238.406 169.527 253.464 166.044 265.41C162.557 277.356 160.5 282.361 162.954 289.737" stroke="#DAA63E" stroke-width="2.75" stroke-miterlimit="10"/>
<path d="M162.135 357.709C162.135 357.709 154.504 342.652 157.987 330.706C161.474 318.76 163.531 313.759 161.077 306.379" stroke="#DAA63E" stroke-width="2.75" stroke-miterlimit="10"/>
<path d="M102.366 298.175C102.366 298.175 117.423 290.544 129.369 294.027C141.316 297.51 146.317 299.572 153.697 297.117" stroke="#DAA63E" stroke-width="2.75" stroke-miterlimit="10"/>
<path d="M221.665 297.937C221.665 297.937 206.608 305.568 194.662 302.085C182.715 298.601 177.715 296.54 170.334 298.995" stroke="#DAA63E" stroke-width="2.75" stroke-miterlimit="10"/>
<path d="M32.9344 326.136C49.5094 321.959 54.527 309.465 55.9153 300.27C53.3061 300.203 50.7178 299.195 48.7233 297.205C46.5406 295.022 45.5455 292.121 45.6751 289.26C6.67124 291.544 3 342.928 3 342.928C3 342.928 5.60916 333.019 32.9344 326.136Z" stroke="#DAA63E" stroke-width="2.75" stroke-miterlimit="10"/>
<path d="M45.6584 289.457C45.7253 286.848 46.733 284.26 48.7233 282.265C50.906 280.082 53.8079 279.087 56.6679 279.217C54.3849 240.213 3 236.542 3 236.542C3 236.542 12.9099 239.151 19.7924 266.476C23.9696 283.055 36.4635 288.073 45.6584 289.457Z" stroke="#DAA63E" stroke-width="2.75" stroke-miterlimit="10"/>
<path d="M63.6592 282.269C65.8419 284.452 66.837 287.354 66.7074 290.214C105.711 287.931 109.383 236.546 109.383 236.546C109.383 236.546 106.778 246.456 79.4481 253.338C62.8731 257.515 57.8554 270.009 56.4672 279.204C59.0764 279.271 61.6689 280.275 63.6592 282.269Z" stroke="#DAA63E" stroke-width="2.75" stroke-miterlimit="10"/>
<path d="M63.6592 297.205C61.4765 299.388 58.5746 300.383 55.7146 300.253C57.9976 339.257 109.383 342.928 109.383 342.928C109.383 342.928 99.4726 340.319 92.5901 312.994C88.4129 296.419 75.919 291.401 66.7241 290.013C66.6572 292.622 65.6495 295.215 63.6592 297.205Z" stroke="#DAA63E" stroke-width="2.75" stroke-miterlimit="10"/>
<path d="M109.383 236.546C109.383 236.546 102.722 256.763 88.9481 264.281C75.1747 271.799 68.8734 274.412 64.462 283.168" stroke="#DAA63E" stroke-width="2.75" stroke-miterlimit="10"/>
<path d="M3 342.928C3 342.928 9.66092 322.707 23.4344 315.193C37.2078 307.675 43.5091 305.062 47.9205 296.306" stroke="#DAA63E" stroke-width="2.75" stroke-miterlimit="10"/>
<path d="M3 236.546C3 236.546 23.2211 243.207 30.7351 256.98C38.2532 270.754 40.8665 277.055 49.6223 281.466" stroke="#DAA63E" stroke-width="2.75" stroke-miterlimit="10"/>
<path d="M109.382 342.928C109.382 342.928 89.1614 336.268 81.6475 322.494C74.1293 308.721 71.516 302.419 62.7602 298.008" stroke="#DAA63E" stroke-width="2.75" stroke-miterlimit="10"/>
<path d="M56.4589 279.167C62.7769 254.07 81.8691 211.704 138.46 161.465" stroke="#DAA63E" stroke-width="2.75" stroke-miterlimit="10"/>
</svg>
